<?xml version="1.0" standalone="no"?>
<!DOCTYPE svg PUBLIC "-//W3C//DTD SVG 20010904//EN"
 "http://www.w3.org/TR/2001/REC-SVG-20010904/DTD/svg10.dtd">
<svg version="1.0" xmlns="http://www.w3.org/2000/svg"
 width="128.000000pt" height="128.000000pt" viewBox="0 0 128.000000 128.000000"
 preserveAspectRatio="xMidYMid meet">
<metadata>
Created by potrace 1.14, written by Peter Selinger 2001-2017
</metadata>
<g transform="translate(0.000000,128.000000) scale(0.100000,-0.100000)"
fill="#000000" stroke="none">
<path d="M85 1270 c-11 -4 -31 -20 -45 -35 l-25 -27 0 -569 0 -569 33 -32 32
-33 548 -2 c598 -3 578 -5 619 56 l23 34 0 547 0 547 -23 34 c-12 18 -34 39
-47 46 -19 10 -151 13 -560 12 -294 0 -544 -4 -555 -9z m975 -133 c19 -7 44
-27 57 -46 l23 -34 0 -409 c0 -445 -2 -459 -56 -495 -26 -17 -60 -18 -424 -21
-442 -3 -458 -1 -497 57 l-23 34 0 417 0 417 23 34 c13 19 38 39 57 46 49 17
791 17 840 0z"/>
<path d="M216 1079 l-26 -20 0 -419 0 -419 26 -20 c26 -20 37 -21 424 -21 387
0 398 1 424 21 l26 20 0 419 0 419 -26 20 c-26 20 -37 21 -424 21 -387 0 -398
-1 -424 -21z m399 -79 c24 -5 51 -21 68 -40 l27 -30 0 -183 c0 -256 -1 -257
-245 -257 l-155 0 0 260 0 260 133 0 c72 0 150 -5 172 -10z"/>
<path d="M440 745 l0 -165 70 0 70 0 0 165 0 165 -70 0 -70 0 0 -165z"/>
</g>
</svg>
